<svg width="858" height="465" viewBox="0 0 858 465" fill="none" xmlns="http://www.w3.org/2000/svg">
<mask id="mask0" mask-type="alpha" maskUnits="userSpaceOnUse" x="0" y="0" width="858" height="465">
<rect width="858" height="465" fill="#C4C4C4"/>
</mask>
<g mask="url(#mask0)">
<g style="mix-blend-mode:multiply">
<circle cx="679" cy="484" r="229.5" stroke="#FFCE6C" stroke-width="3"/>
</g>
<g style="mix-blend-mode:multiply">
<circle cx="120" cy="480" r="53" fill="#FFCE6C"/>
</g>
<g style="mix-blend-mode:multiply">
<circle cx="136" cy="28" r="114.5" stroke="#00C7D0" stroke-width="3"/>
</g>
<g style="mix-blend-mode:multiply">
<circle cx="831" cy="244" r="163.5" stroke="#00C7D0" stroke-width="3"/>
</g>
<g style="mix-blend-mode:multiply">
<circle cx="755" cy="268" r="19" fill="#00C7D0"/>
</g>
</g>
<path d="M250.975 144.245C247.011 144.245 243.136 143.07 239.841 140.867C236.545 138.665 233.976 135.535 232.459 131.873C230.942 128.211 230.545 124.181 231.319 120.294C232.092 116.406 234.001 112.835 236.804 110.032C239.606 107.229 243.178 105.32 247.065 104.547C250.953 103.774 254.983 104.171 258.645 105.687C262.307 107.204 265.437 109.773 267.639 113.069C269.841 116.365 271.017 120.24 271.017 124.203C271.011 129.517 268.897 134.611 265.14 138.368C261.383 142.126 256.289 144.239 250.975 144.245ZM250.975 108.097C247.79 108.097 244.676 109.042 242.027 110.812C239.378 112.581 237.314 115.097 236.095 118.04C234.876 120.983 234.557 124.221 235.178 127.346C235.8 130.47 237.334 133.34 239.586 135.592C241.839 137.845 244.709 139.379 247.833 140C250.957 140.622 254.196 140.303 257.139 139.084C260.082 137.865 262.597 135.8 264.367 133.152C266.137 130.503 267.081 127.389 267.081 124.203C267.081 119.93 265.385 115.832 262.365 112.809C259.345 109.785 255.248 108.085 250.975 108.08V108.097Z" fill="#004C67"/>
<path d="M250.975 242.345C247.011 242.345 243.136 241.169 239.84 238.967C236.544 236.764 233.975 233.634 232.459 229.971C230.942 226.309 230.545 222.279 231.319 218.391C232.093 214.503 234.002 210.932 236.806 208.13C239.609 205.327 243.181 203.419 247.069 202.646C250.957 201.873 254.987 202.271 258.649 203.789C262.311 205.307 265.44 207.876 267.642 211.173C269.843 214.469 271.018 218.345 271.017 222.309C271.009 227.621 268.895 232.714 265.138 236.47C261.381 240.226 256.288 242.339 250.975 242.345ZM250.975 206.203C247.79 206.203 244.676 207.147 242.027 208.917C239.378 210.687 237.314 213.202 236.095 216.145C234.876 219.088 234.557 222.327 235.178 225.451C235.8 228.575 237.334 231.445 239.586 233.698C241.839 235.95 244.709 237.484 247.833 238.106C250.957 238.727 254.196 238.408 257.139 237.189C260.082 235.97 262.597 233.906 264.367 231.257C266.137 228.608 267.081 225.494 267.081 222.309C267.077 218.039 265.379 213.944 262.359 210.925C259.34 207.905 255.245 206.207 250.975 206.203Z" fill="#004C67"/>
<path d="M266.232 168.081C267.412 171.568 267.361 175.353 266.088 178.807C264.814 182.26 262.395 185.172 259.234 187.058C256.073 188.943 252.361 189.688 248.717 189.168C245.074 188.647 241.719 186.893 239.212 184.198C236.705 181.503 235.198 178.03 234.942 174.359C234.686 170.687 235.696 167.038 237.805 164.022C239.914 161.005 242.993 158.802 246.53 157.782C250.066 156.761 253.845 156.983 257.237 158.412L258.772 154.791C254.553 153.013 249.852 152.734 245.452 154.003C241.053 155.271 237.221 158.01 234.597 161.762C231.973 165.514 230.714 170.052 231.032 174.62C231.349 179.187 233.223 183.508 236.341 186.861C239.459 190.214 243.632 192.397 248.165 193.045C252.697 193.693 257.315 192.767 261.247 190.422C265.18 188.077 268.189 184.454 269.774 180.158C271.358 175.863 271.422 171.153 269.954 166.816L266.232 168.081Z" fill="#FFCE6C"/>
<path d="M244.47 169.228L241.688 172.011L250.058 180.382L274.929 155.511L272.146 152.728L250.058 174.816L244.47 169.228Z" fill="#FFCE6C"/>
<path d="M433.148 114.787H295.533V118.722H433.148V114.787Z" fill="#004C67"/>
<path d="M472.793 129.685H295.533V133.62H472.793V129.685Z" fill="#004C67"/>
<path d="M433.148 163.837H295.533V167.772H433.148V163.837Z" fill="#004C67"/>
<path d="M472.793 178.734H295.533V182.67H472.793V178.734Z" fill="#004C67"/>
<path d="M433.148 212.892H295.533V216.828H433.148V212.892Z" fill="#004C67"/>
<path d="M472.793 227.79H295.533V231.725H472.793V227.79Z" fill="#004C67"/>
<path d="M258.144 282.601H229.288C227.897 282.598 226.507 282.706 225.133 282.921C223.922 283.105 222.729 283.396 221.569 283.792C220.64 284.1 219.762 284.541 218.96 285.102C218.37 285.48 217.921 286.044 217.684 286.704L193.443 372.431C193.341 372.787 193.32 373.162 193.381 373.528C193.442 373.893 193.585 374.241 193.798 374.544C194.34 375.294 195.063 375.893 195.9 376.287C197.018 376.839 198.205 377.234 199.431 377.462C200.949 377.76 202.493 377.905 204.04 377.895H565.075C566.62 377.904 568.163 377.759 569.679 377.462C570.904 377.234 572.092 376.839 573.209 376.287C574.046 375.893 574.77 375.294 575.312 374.544C575.524 374.24 575.665 373.893 575.726 373.527C575.786 373.161 575.764 372.787 575.661 372.431L551.425 286.704C551.187 286.045 550.738 285.482 550.149 285.102C549.348 284.541 548.469 284.1 547.541 283.792C546.381 283.396 545.188 283.105 543.976 282.921C542.604 282.706 541.217 282.599 539.827 282.601H258.144Z" fill="#00C7D0"/>
<path d="M575.756 373.279C575.744 373.441 575.718 373.601 575.677 373.757C575.636 373.915 575.577 374.068 575.503 374.213C575.425 374.365 575.337 374.511 575.239 374.651C575.133 374.8 575.016 374.94 574.89 375.073C574.755 375.208 574.615 375.337 574.457 375.466C574.296 375.599 574.127 375.723 573.951 375.837C573.783 375.944 573.603 376.051 573.417 376.152L573.254 376.236L572.788 376.461L572.625 376.534C572.411 376.63 572.192 376.714 571.961 376.799L571.849 376.838C571.618 376.917 571.382 376.995 571.129 377.068C570.871 377.147 570.607 377.215 570.337 377.277C570.264 377.277 570.191 377.31 570.117 377.327C569.909 377.378 569.696 377.417 569.477 377.462L569.24 377.507C568.954 377.558 568.678 377.603 568.358 377.642C568.032 377.687 567.694 377.721 567.352 377.754H567.318C566.975 377.754 566.621 377.805 566.267 377.822C565.901 377.822 565.53 377.822 565.142 377.822H204.04C203.664 377.822 203.293 377.822 202.916 377.822C202.551 377.822 202.202 377.782 201.853 377.754C201.511 377.721 201.173 377.687 200.842 377.642C200.51 377.597 200.189 377.546 199.875 377.49C199.565 377.434 199.262 377.366 198.964 377.299C198.666 377.226 198.402 377.153 198.104 377.074C197.828 376.995 197.542 376.905 197.311 376.816C197.058 376.726 196.822 376.63 196.592 376.529H196.558C196.389 376.456 196.232 376.371 196.074 376.293L195.788 376.147L195.467 375.955L195.214 375.798L194.933 375.59L194.714 375.421L194.472 375.202L194.292 375.022C194.219 374.949 194.157 374.865 194.09 374.786L193.949 374.606C193.887 374.522 193.843 374.432 193.792 374.348C193.741 374.263 193.719 374.23 193.691 374.173C193.663 374.117 193.612 373.971 193.578 373.87C193.545 373.769 193.533 373.769 193.522 373.718C193.476 373.566 193.45 373.41 193.443 373.251L194.006 381.302C194.018 381.461 194.044 381.619 194.084 381.774L194.14 381.926C194.167 382.022 194.201 382.116 194.242 382.207C194.27 382.269 194.309 382.325 194.343 382.387C194.377 382.449 194.444 382.561 194.5 382.645L194.646 382.831C194.694 382.897 194.744 382.961 194.798 383.022L194.843 383.067C194.853 383.084 194.867 383.1 194.883 383.112C194.922 383.157 194.978 383.202 195.023 383.247L195.265 383.472L195.484 383.64L195.67 383.786L195.765 383.848L196.018 384.011L196.339 384.197L196.625 384.349L196.816 384.455L197.058 384.562H197.103L197.272 384.635L197.525 384.737L197.789 384.838H197.823L197.986 384.894L198.199 384.967L198.419 385.035L198.615 385.096L198.818 385.158L199.02 385.214L199.228 385.265L199.436 385.316H199.475L199.633 385.349L199.835 385.394L200.032 385.439L200.24 385.479H200.386H200.437L200.634 385.512L200.83 385.546L201.033 385.58H201.235H201.364H201.415H201.617H201.825H202.028H202.23H202.376H202.438H202.646H202.86H203.079H203.293H565.693H565.963H566.233H566.497H566.728H566.829L567.16 385.546L567.486 385.512L567.768 385.473H567.807C568.054 385.473 568.29 385.406 568.526 385.366H568.661H568.757L568.903 385.332L569.212 385.276L569.533 385.203L569.752 385.153H569.87C570.084 385.102 570.292 385.046 570.5 384.984H570.545H570.584H570.663H570.747H570.831L571.264 384.838L571.377 384.798H571.41C571.598 384.731 571.785 384.658 571.973 384.579L572.057 384.545L572.119 384.517L572.226 384.467L572.484 384.349L572.687 384.242L572.85 384.158L572.951 384.101L573.159 383.978L573.361 383.854C573.414 383.822 573.465 383.786 573.513 383.747C573.585 383.738 573.656 383.724 573.727 383.708L573.862 383.601L573.895 383.573L573.974 383.505L574.098 383.399L574.21 383.286L574.311 383.191L574.379 383.118L574.469 383.016L574.553 382.915L574.626 382.82L574.66 382.775V382.735L574.727 382.64L574.783 382.538C574.804 382.51 574.823 382.48 574.84 382.449L574.89 382.353L574.924 382.285C574.924 382.252 574.924 382.224 574.963 382.19L574.997 382.094L575.031 381.999C575.033 381.969 575.033 381.939 575.031 381.909C575.033 381.884 575.033 381.86 575.031 381.836V381.74C575.036 381.709 575.036 381.676 575.031 381.645V381.543C575.031 381.515 575.031 381.482 575.031 381.448L575.756 373.279Z" fill="#00C7D0"/>
<g style="mix-blend-mode:multiply">
<path d="M359 91C359 92.6569 357.657 94 356 94C354.343 94 353 92.6569 353 91C353 89.3431 354.343 88 356 88C357.657 88 359 89.3431 359 91Z" stroke="#004C67" stroke-width="2"/>
</g>
<g style="mix-blend-mode:multiply">
<path d="M352 95C354.209 95 356 93.2091 356 91C356 88.7909 354.209 87 352 87C349.791 87 348 88.7909 348 91C348 93.2091 349.791 95 352 95Z" fill="#FFCE6C"/>
</g>
<path d="M545.88 352.287L521.882 267.349C522.001 267.117 522.064 266.861 522.067 266.6V90.9487C522.067 87.5145 520.704 84.2209 518.278 81.7926C515.851 79.3642 512.56 78 509.129 78H196.914C193.483 78 190.192 79.3642 187.765 81.7926C185.339 84.2209 183.975 87.5145 183.975 90.9487V266.6C183.977 266.861 184.039 267.117 184.155 267.349L160.157 352.287C160.025 352.752 159.976 353.235 160.011 353.717L160.545 361.751C160.564 362.023 160.607 362.292 160.675 362.556C160.675 362.646 160.731 362.73 160.776 362.849C160.821 362.967 160.872 363.119 160.933 363.26L161.007 363.4L161.091 363.547L161.13 363.614C161.197 363.738 161.27 363.858 161.35 363.975C161.406 364.053 161.468 364.132 161.53 364.205L161.58 364.267C161.64 364.357 161.708 364.442 161.783 364.521L161.822 364.566L161.895 364.645L162.104 364.842C162.205 364.937 162.306 365.033 162.407 365.117L162.655 365.315L163.724 364.042L162.728 365.41L162.919 365.557L163.054 365.641C163.155 365.714 163.261 365.782 163.369 365.844C163.493 365.923 163.617 366.001 163.757 366.075L164.14 366.277L164.326 366.379L164.562 366.486L165.327 364.982L164.607 366.508L164.883 366.626L165.186 366.756L165.473 366.863L167.121 367.369L169.434 367.809H169.49L171.706 368H172.758H533.15L535.929 367.859L536.272 367.82L536.626 367.775L537.402 367.657L537.639 367.612L537.808 367.578H537.909L538.145 367.533L538.409 367.471L538.865 367.364C539.045 367.324 539.22 367.274 539.377 367.229L539.94 367.065L540.255 366.457L539.866 365.331L540.463 366.908L540.592 366.863C540.806 366.784 541.014 366.705 541.217 366.621L541.38 366.547L541.509 366.486L541.582 366.452L541.802 366.35L541.993 366.249L542.24 366.12L542.364 366.052C542.449 366.001 542.533 365.956 542.617 365.9L542.882 365.731L542.938 365.692L543.118 365.573L543.371 365.388L543.703 365.117L543.849 364.988L543.945 364.898L544.108 364.819L544.26 364.583L544.333 364.515V364.476L544.389 364.414L544.637 364.093L544.671 364.048L544.901 363.699C544.901 363.648 544.958 363.603 544.98 363.552L545.132 363.248L545.199 363.091L545.312 362.781L545.351 362.663V362.55C545.355 362.526 545.355 362.501 545.351 362.477C545.351 362.415 545.351 362.359 545.385 362.325L545.413 362.179C545.413 362.128 545.413 362.083 545.413 362.044L545.976 353.745V353.717C546.028 353.238 545.996 352.754 545.88 352.287ZM196.914 81.3892H509.129C511.665 81.3892 514.098 82.3975 515.891 84.1924C517.685 85.9873 518.692 88.4216 518.692 90.96V263.268C518.046 262.918 517.372 262.62 516.678 262.378C515.421 261.944 514.128 261.624 512.813 261.421C511.352 261.194 509.876 261.081 508.397 261.083H197.651C196.171 261.081 194.692 261.194 193.229 261.421C191.915 261.623 190.622 261.944 189.365 262.378C188.671 262.62 187.997 262.918 187.351 263.268V90.96C187.351 88.4216 188.358 85.9873 190.152 84.1924C191.945 82.3975 194.378 81.3892 196.914 81.3892ZM163.651 354.072L163.572 353.982L163.51 353.869L163.471 353.801C163.471 353.801 163.471 353.745 163.437 353.706V353.649C163.432 353.622 163.432 353.593 163.437 353.565V353.345C163.443 353.296 163.452 353.247 163.465 353.199L187.716 267.355C187.716 267.321 187.812 267.057 188.375 266.646C189.045 266.188 189.776 265.826 190.546 265.57C191.61 265.208 192.703 264.94 193.814 264.771C195.102 264.571 196.404 264.471 197.707 264.472H508.397C509.699 264.471 510.999 264.571 512.285 264.771C513.396 264.94 514.489 265.208 515.553 265.57C516.323 265.827 517.053 266.189 517.725 266.646C518.287 267.057 518.371 267.321 518.377 267.355L542.634 353.199C542.661 353.3 542.671 353.405 542.662 353.509C542.654 353.562 542.641 353.615 542.623 353.666V353.711C542.595 353.774 542.563 353.834 542.527 353.892V353.925C542.46 354.032 542.381 354.13 542.291 354.218C542.19 354.324 542.081 354.422 541.965 354.511L541.892 354.567C541.79 354.64 541.689 354.719 541.577 354.792L541.323 354.939L541.143 355.04L541.053 355.085C540.993 355.118 540.931 355.149 540.868 355.175C540.744 355.237 540.62 355.299 540.485 355.355L540.204 355.468L539.771 355.626L539.506 355.716L539 355.862L538.685 355.946L538.179 356.065L537.813 356.138C537.562 356.187 537.303 356.232 537.037 356.273H536.885C536.598 356.312 536.322 356.346 536.019 356.374H535.839C535.574 356.374 535.304 356.419 535.034 356.431H534.809C534.444 356.431 534.078 356.431 533.684 356.431H172.387C172.016 356.431 171.65 356.431 171.262 356.431H170.947C170.694 356.431 170.446 356.402 170.199 356.38L169.889 356.346L169.209 356.267L168.837 356.205C168.629 356.205 168.427 356.138 168.23 356.104L167.87 356.025L167.386 355.913L167.076 355.834L166.576 355.687L166.278 355.586C166.114 355.535 165.963 355.474 165.811 355.417L165.603 355.333C165.484 355.288 165.378 355.231 165.265 355.181L165.068 355.085L164.849 355.034L164.792 355.006L164.573 354.877L164.416 354.775L164.236 354.652L164.146 354.578L164.044 354.505L163.921 354.393L163.864 354.342L163.746 354.229L163.662 354.122L163.651 354.072ZM541.824 363.04L541.712 362.894L541.79 362.933L542.572 363.834L541.824 363.04ZM542.893 362.258L542.229 361.903L543.579 362.567L542.893 362.258ZM542.089 361.83L541.976 362.032L541.689 362.252L541.565 362.5L541.487 362.573V362.533L541.408 362.595L541.031 362.866L540.885 362.961L540.722 363.051L539.911 363.457L539.478 363.626L539.298 363.688L538.927 363.817L538.64 363.901C538.46 363.958 538.274 364.008 538.078 364.059L536.874 364.307C536.666 364.346 536.452 364.374 536.216 364.408L535.614 364.481L533.397 364.605H172.859L172.826 366.294L172.775 364.605H171.909L170.907 364.543L170.761 366.232L170.851 364.543L168.663 364.234L166.683 363.671L166.413 363.569L166.193 363.479L165.979 363.384L165.754 363.277L165.625 363.209L165.4 363.091L165.119 362.922L164.95 362.815L164.702 362.629L164.584 362.539L164.432 362.393L164.342 362.314L164.303 362.269L164.146 362.072L164.072 361.942L163.982 361.751L163.949 361.65C163.946 361.616 163.946 361.582 163.949 361.548L163.729 358.215C163.87 358.288 164.022 358.362 164.207 358.44L164.32 358.491L164.461 358.547L165.023 358.778C165.074 358.778 165.13 358.806 165.181 358.829L165.563 358.953L165.867 359.048H165.94L166.289 359.144H166.385L166.891 359.268C166.992 359.268 167.099 359.313 167.2 359.336L167.453 359.392L167.656 359.431L167.887 359.476H167.954L168.342 359.538L168.781 359.606H168.944H168.995L169.771 359.696H169.906H170.024H170.142C170.401 359.696 170.666 359.73 170.924 359.747H171.132H171.256C171.633 359.747 172.016 359.747 172.381 359.747H533.662C534.05 359.747 534.432 359.747 534.787 359.747H535.006C535.332 359.747 535.653 359.713 536.002 359.685H536.092L536.604 359.628L537.099 359.572H537.262L537.74 359.499L538.061 359.448L538.314 359.398H538.398L538.595 359.364L538.826 359.313L539.006 359.274L539.253 359.217L539.535 359.144L539.782 359.082L539.889 359.054H540.069L540.294 358.942L540.564 358.851L540.879 358.75L540.975 358.716L541.076 358.683C541.205 358.638 541.318 358.587 541.442 358.536L541.79 358.401H541.83L542.021 358.311L542.359 358.153L542.15 361.289V361.537L542.111 361.689V361.756L542.775 361.897L543.731 362.196L542.089 361.83Z" fill="#004C67"/>
<g style="mix-blend-mode:multiply">
<path d="M223.828 270.892C224.103 270.89 224.378 270.912 224.649 270.959C224.871 270.996 225.087 271.058 225.295 271.145C225.448 271.206 225.585 271.302 225.694 271.426C225.735 271.472 225.765 271.527 225.781 271.586C225.798 271.646 225.801 271.708 225.79 271.769L224.767 276.485C224.729 276.624 224.643 276.746 224.525 276.828C224.366 276.953 224.188 277.05 223.997 277.115C223.76 277.2 223.515 277.26 223.266 277.295C222.982 277.343 222.694 277.367 222.406 277.368H210.864C210.587 277.368 210.311 277.344 210.038 277.295C209.815 277.26 209.597 277.196 209.391 277.104C209.236 277.044 209.099 276.945 208.992 276.817C208.952 276.771 208.923 276.715 208.909 276.656C208.894 276.596 208.894 276.534 208.908 276.474L210.032 271.757C210.075 271.618 210.164 271.497 210.285 271.414C210.446 271.294 210.624 271.199 210.814 271.133C211.051 271.049 211.296 270.987 211.544 270.948C211.827 270.902 212.113 270.879 212.399 270.88L223.828 270.892Z" fill="#FFCE6C"/>
<path d="M283.892 270.892C284.17 270.89 284.449 270.912 284.724 270.959C284.949 270.997 285.169 271.059 285.381 271.145C285.544 271.207 285.691 271.302 285.814 271.426C285.859 271.47 285.894 271.524 285.916 271.583C285.938 271.642 285.948 271.706 285.943 271.769L285.381 276.485C285.36 276.623 285.285 276.746 285.173 276.828C285.026 276.954 284.856 277.051 284.673 277.115C284.45 277.2 284.218 277.26 283.981 277.295C283.699 277.343 283.413 277.368 283.127 277.368H271.58C271.299 277.368 271.019 277.344 270.742 277.295C270.514 277.259 270.291 277.194 270.079 277.104C269.916 277.042 269.77 276.944 269.652 276.817C269.606 276.774 269.571 276.72 269.551 276.66C269.53 276.6 269.524 276.536 269.534 276.474L270.197 271.757C270.223 271.621 270.299 271.498 270.411 271.414C270.561 271.294 270.73 271.199 270.911 271.133C271.142 271.049 271.382 270.987 271.625 270.948C271.904 270.902 272.186 270.879 272.468 270.88L283.892 270.892Z" fill="#FFCE6C"/>
<path d="M303.91 270.892C304.189 270.89 304.467 270.913 304.742 270.959C304.969 270.996 305.192 271.058 305.405 271.145C305.57 271.205 305.72 271.301 305.844 271.426C305.891 271.47 305.928 271.523 305.953 271.582C305.978 271.641 305.991 271.704 305.99 271.769L305.613 276.485C305.59 276.62 305.518 276.742 305.411 276.828C305.27 276.954 305.106 277.051 304.927 277.115C304.698 277.2 304.461 277.26 304.219 277.295C303.937 277.343 303.651 277.368 303.365 277.368H291.812C291.531 277.368 291.251 277.343 290.974 277.295C290.744 277.258 290.52 277.194 290.305 277.104C290.141 277.042 289.993 276.944 289.872 276.817C289.826 276.774 289.789 276.72 289.766 276.661C289.743 276.601 289.733 276.538 289.737 276.474L290.238 271.757C290.263 271.621 290.337 271.499 290.446 271.414C290.591 271.293 290.756 271.197 290.935 271.133C291.163 271.049 291.398 270.987 291.638 270.948C291.916 270.902 292.198 270.879 292.481 270.88L303.91 270.892Z" fill="#FFCE6C"/>
<path d="M323.924 270.892C324.202 270.89 324.481 270.912 324.756 270.959C324.988 270.996 325.217 271.059 325.436 271.145C325.602 271.207 325.753 271.302 325.88 271.426C325.929 271.468 325.969 271.521 325.996 271.58C326.023 271.639 326.037 271.704 326.037 271.769L325.824 276.485C325.817 276.552 325.796 276.617 325.763 276.676C325.73 276.735 325.686 276.787 325.633 276.828C325.495 276.955 325.332 277.053 325.155 277.115C324.93 277.2 324.696 277.261 324.458 277.295C324.177 277.343 323.893 277.368 323.609 277.368H312.056C311.774 277.368 311.491 277.343 311.213 277.295C310.979 277.258 310.751 277.194 310.533 277.104C310.365 277.042 310.214 276.944 310.089 276.817C310.042 276.773 310.004 276.72 309.979 276.661C309.954 276.602 309.942 276.538 309.942 276.474L310.285 271.757C310.307 271.623 310.377 271.501 310.482 271.414C310.623 271.293 310.785 271.197 310.96 271.133C311.186 271.049 311.419 270.987 311.657 270.948C311.936 270.902 312.218 270.879 312.5 270.88L323.924 270.892Z" fill="#FFCE6C"/>
<path d="M343.942 270.892C344.221 270.89 344.5 270.913 344.775 270.959C345.009 270.997 345.239 271.059 345.46 271.145C345.629 271.208 345.783 271.304 345.916 271.426C345.965 271.469 346.006 271.521 346.035 271.58C346.064 271.639 346.081 271.703 346.084 271.769L346.028 276.485C346.024 276.551 346.007 276.616 345.977 276.675C345.947 276.734 345.905 276.786 345.854 276.828C345.717 276.954 345.556 277.052 345.382 277.115C345.161 277.2 344.93 277.261 344.696 277.295C344.415 277.343 344.131 277.367 343.847 277.368H332.294C332.01 277.368 331.726 277.343 331.445 277.295C331.212 277.258 330.983 277.194 330.765 277.104C330.594 277.043 330.438 276.945 330.31 276.817C330.261 276.774 330.221 276.722 330.194 276.663C330.167 276.603 330.153 276.539 330.152 276.474L330.332 271.757C330.338 271.691 330.357 271.627 330.388 271.568C330.419 271.509 330.461 271.457 330.512 271.414C330.651 271.293 330.811 271.197 330.984 271.133C331.208 271.048 331.44 270.986 331.676 270.948C331.954 270.902 332.237 270.879 332.519 270.88L343.942 270.892Z" fill="#FFCE6C"/>
<path d="M263.878 270.892C264.155 270.89 264.431 270.913 264.704 270.959C264.928 270.996 265.147 271.058 265.357 271.145C265.517 271.205 265.661 271.301 265.778 271.426C265.823 271.47 265.857 271.524 265.877 271.583C265.898 271.643 265.904 271.706 265.896 271.769L265.199 276.485C265.17 276.624 265.09 276.746 264.974 276.828C264.825 276.954 264.653 277.051 264.468 277.115C264.234 277.2 263.991 277.261 263.743 277.295C263.459 277.343 263.171 277.367 262.883 277.368H251.342C251.063 277.368 250.784 277.344 250.51 277.295C250.281 277.259 250.059 277.194 249.846 277.104C249.688 277.041 249.545 276.943 249.43 276.817C249.387 276.772 249.355 276.717 249.337 276.658C249.318 276.599 249.314 276.536 249.323 276.474L250.144 271.757C250.18 271.62 250.261 271.499 250.375 271.414C250.529 271.294 250.702 271.199 250.886 271.133C251.12 271.048 251.36 270.986 251.606 270.948C251.886 270.902 252.17 270.879 252.455 270.88L263.878 270.892Z" fill="#FFCE6C"/>
<path d="M363.955 270.892C364.236 270.89 364.516 270.913 364.793 270.959C365.029 270.997 365.261 271.059 365.485 271.145C365.656 271.208 365.815 271.304 365.951 271.426C366.002 271.468 366.044 271.52 366.074 271.579C366.104 271.638 366.122 271.703 366.125 271.769L366.232 276.485C366.231 276.551 366.216 276.615 366.188 276.674C366.16 276.733 366.119 276.786 366.069 276.828C365.939 276.954 365.784 277.052 365.614 277.115C365.395 277.2 365.166 277.26 364.934 277.295C364.655 277.343 364.373 277.368 364.09 277.368H352.526C352.244 277.368 351.962 277.343 351.683 277.295C351.446 277.258 351.214 277.194 350.992 277.104C350.819 277.04 350.66 276.943 350.525 276.817C350.475 276.774 350.435 276.722 350.406 276.663C350.377 276.604 350.36 276.54 350.356 276.474V271.757C350.361 271.692 350.379 271.627 350.409 271.568C350.439 271.509 350.48 271.457 350.531 271.414C350.664 271.291 350.821 271.196 350.992 271.133C351.213 271.048 351.443 270.986 351.678 270.948C351.954 270.902 352.235 270.879 352.515 270.88L363.955 270.892Z" fill="#FFCE6C"/>
<path d="M383.969 270.892C384.252 270.89 384.534 270.913 384.813 270.959C385.05 270.998 385.284 271.06 385.51 271.145C385.683 271.209 385.843 271.304 385.982 271.426C386.035 271.467 386.08 271.519 386.112 271.578C386.145 271.637 386.166 271.702 386.173 271.769L386.443 276.485C386.443 276.55 386.429 276.614 386.403 276.673C386.377 276.732 386.339 276.785 386.291 276.828C386.163 276.954 386.01 277.052 385.841 277.115C385.626 277.2 385.401 277.261 385.172 277.295C384.894 277.343 384.612 277.368 384.329 277.368H372.765C372.481 277.367 372.197 277.343 371.916 277.295C371.677 277.258 371.443 277.194 371.219 277.104C371.044 277.042 370.883 276.944 370.747 276.817C370.694 276.776 370.65 276.724 370.619 276.665C370.587 276.606 370.567 276.541 370.561 276.474L370.421 271.757C370.426 271.627 370.483 271.504 370.578 271.415C370.711 271.293 370.865 271.197 371.034 271.133C371.253 271.047 371.481 270.985 371.714 270.948C371.989 270.901 372.267 270.879 372.546 270.88L383.969 270.892Z" fill="#FFCE6C"/>
<path d="M403.988 270.892C404.271 270.891 404.553 270.913 404.831 270.959C405.071 270.998 405.306 271.06 405.534 271.145C405.71 271.21 405.874 271.305 406.018 271.426C406.125 271.512 406.197 271.634 406.22 271.769L406.647 276.486C406.651 276.55 406.64 276.613 406.615 276.673C406.591 276.732 406.554 276.785 406.507 276.828C406.384 276.956 406.234 277.053 406.068 277.115C405.852 277.206 405.625 277.27 405.394 277.306C405.115 277.355 404.833 277.379 404.55 277.379H393.003C392.719 277.379 392.435 277.355 392.154 277.306C391.912 277.269 391.674 277.205 391.446 277.115C391.268 277.052 391.104 276.954 390.963 276.828C390.909 276.787 390.865 276.735 390.832 276.677C390.799 276.618 390.779 276.553 390.771 276.486L390.468 271.769C390.467 271.705 390.48 271.641 390.505 271.582C390.53 271.523 390.567 271.47 390.614 271.426C390.741 271.303 390.892 271.207 391.058 271.145C391.276 271.059 391.502 270.997 391.733 270.959C392.008 270.913 392.286 270.89 392.565 270.892H403.988Z" fill="#FFCE6C"/>
<path d="M424.002 270.892C424.286 270.89 424.57 270.913 424.851 270.959C425.091 270.998 425.326 271.06 425.554 271.145C425.735 271.209 425.904 271.304 426.054 271.426C426.163 271.511 426.237 271.633 426.262 271.769L426.824 276.485C426.831 276.548 426.823 276.612 426.802 276.671C426.78 276.73 426.746 276.784 426.7 276.828C426.58 276.955 426.432 277.053 426.267 277.115C426.069 277.198 425.861 277.259 425.649 277.295C425.373 277.344 425.092 277.368 424.811 277.368H413.242C412.956 277.368 412.67 277.343 412.387 277.295C412.145 277.258 411.907 277.193 411.679 277.104C411.497 277.041 411.329 276.944 411.184 276.817C411.073 276.734 410.998 276.611 410.976 276.474L410.515 271.757C410.51 271.694 410.519 271.63 410.542 271.57C410.566 271.51 410.603 271.457 410.65 271.415C410.773 271.291 410.921 271.195 411.083 271.133C411.297 271.047 411.519 270.985 411.747 270.948C412.021 270.901 412.3 270.879 412.579 270.88L424.002 270.892Z" fill="#FFCE6C"/>
<path d="M444.021 270.892C444.306 270.89 444.59 270.913 444.87 270.959C445.112 270.997 445.349 271.06 445.579 271.145C445.762 271.208 445.933 271.304 446.085 271.426C446.2 271.508 446.28 271.63 446.309 271.769L447.063 276.485C447.071 276.548 447.064 276.611 447.044 276.671C447.023 276.73 446.989 276.784 446.945 276.828C446.829 276.956 446.685 277.055 446.523 277.115C446.32 277.201 446.106 277.261 445.888 277.295C445.611 277.344 445.331 277.368 445.05 277.368H433.481C433.192 277.367 432.905 277.343 432.621 277.295C432.376 277.257 432.137 277.193 431.907 277.104C431.722 277.04 431.55 276.943 431.401 276.817C431.289 276.733 431.213 276.611 431.187 276.474L430.563 271.757C430.556 271.695 430.564 271.631 430.585 271.572C430.607 271.512 430.641 271.459 430.687 271.414C430.805 271.291 430.949 271.195 431.108 271.133C431.32 271.048 431.541 270.986 431.766 270.948C432.039 270.901 432.315 270.879 432.592 270.88L444.021 270.892Z" fill="#FFCE6C"/>
<path d="M464.034 270.892C464.319 270.89 464.603 270.913 464.883 270.959C465.13 270.998 465.373 271.06 465.608 271.145C465.793 271.21 465.966 271.305 466.12 271.426C466.237 271.509 466.32 271.63 466.356 271.769L467.272 276.485C467.282 276.547 467.278 276.61 467.259 276.669C467.241 276.729 467.209 276.783 467.166 276.828C467.054 276.955 466.913 277.053 466.755 277.115C466.553 277.2 466.342 277.261 466.126 277.295C465.851 277.344 465.572 277.368 465.294 277.368H453.718C453.43 277.367 453.142 277.343 452.858 277.295C452.61 277.257 452.367 277.193 452.133 277.104C451.947 277.039 451.774 276.942 451.621 276.817C451.506 276.734 451.424 276.612 451.391 276.474L450.61 271.757C450.6 271.696 450.604 271.633 450.623 271.573C450.641 271.514 450.673 271.46 450.716 271.415C450.834 271.292 450.975 271.197 451.132 271.133C451.342 271.047 451.561 270.985 451.784 270.948C452.057 270.901 452.334 270.879 452.611 270.88L464.034 270.892Z" fill="#FFCE6C"/>
<path d="M493.273 270.892C493.559 270.891 493.845 270.913 494.127 270.959C494.376 270.998 494.621 271.061 494.858 271.145C495.048 271.211 495.226 271.305 495.386 271.426C495.506 271.51 495.594 271.63 495.639 271.769L496.764 276.486C496.777 276.546 496.775 276.608 496.76 276.668C496.744 276.727 496.715 276.782 496.674 276.828C496.568 276.955 496.433 277.054 496.28 277.115C496.074 277.206 495.857 277.27 495.634 277.306C495.359 277.355 495.081 277.38 494.802 277.379H473.956C473.666 277.379 473.377 277.354 473.091 277.306C472.841 277.268 472.596 277.204 472.36 277.115C472.171 277.049 471.994 276.952 471.837 276.828C471.72 276.746 471.637 276.624 471.601 276.486L470.651 271.769C470.64 271.708 470.643 271.645 470.661 271.585C470.678 271.526 470.71 271.471 470.752 271.426C470.864 271.304 471.003 271.208 471.157 271.145C471.364 271.059 471.581 270.996 471.803 270.959C472.076 270.912 472.353 270.89 472.63 270.892H493.273Z" fill="#FFCE6C"/>
<path d="M243.859 270.892C244.135 270.89 244.412 270.912 244.685 270.959C244.909 270.996 245.127 271.058 245.337 271.145C245.493 271.207 245.633 271.303 245.747 271.426C245.789 271.471 245.821 271.526 245.839 271.585C245.858 271.645 245.863 271.707 245.854 271.769L244.994 276.485C244.958 276.624 244.875 276.745 244.758 276.828C244.603 276.953 244.428 277.05 244.241 277.115C244.002 277.2 243.755 277.26 243.504 277.295C243.22 277.343 242.932 277.367 242.644 277.368H231.103C230.824 277.368 230.545 277.343 230.271 277.295C230.046 277.26 229.827 277.195 229.619 277.104C229.462 277.044 229.323 276.945 229.214 276.817C229.172 276.772 229.14 276.717 229.123 276.657C229.105 276.598 229.102 276.535 229.113 276.474L230.102 271.757C230.138 271.617 230.224 271.495 230.344 271.414C230.5 271.293 230.674 271.198 230.861 271.133C231.097 271.049 231.339 270.987 231.586 270.948C231.867 270.902 232.151 270.879 232.435 270.88L243.859 270.892Z" fill="#FFCE6C"/>
<path d="M434.363 279.173C434.651 279.173 434.938 279.198 435.223 279.246C435.468 279.287 435.709 279.351 435.942 279.437C436.125 279.505 436.296 279.602 436.448 279.724C436.564 279.81 436.644 279.936 436.673 280.078L437.353 284.929C437.36 284.994 437.353 285.059 437.331 285.12C437.31 285.182 437.275 285.237 437.23 285.284C437.109 285.414 436.961 285.515 436.797 285.581C436.581 285.669 436.357 285.735 436.128 285.778C435.847 285.827 435.563 285.851 435.279 285.851H423.563C423.271 285.851 422.98 285.826 422.692 285.778C422.447 285.733 422.206 285.667 421.972 285.581C421.787 285.513 421.616 285.412 421.466 285.284C421.353 285.197 421.276 285.07 421.253 284.929L420.69 280.078C420.686 280.013 420.696 279.947 420.719 279.886C420.743 279.825 420.779 279.769 420.825 279.724C420.949 279.6 421.096 279.503 421.258 279.437C421.474 279.349 421.698 279.285 421.927 279.246C422.206 279.197 422.488 279.173 422.77 279.173H434.363Z" fill="#FFCE6C"/>
<path d="M414.063 279.173C414.349 279.173 414.635 279.197 414.917 279.246C415.161 279.285 415.4 279.349 415.631 279.437C415.812 279.505 415.981 279.602 416.131 279.724C416.243 279.811 416.317 279.938 416.339 280.078L416.857 284.929C416.861 284.995 416.852 285.06 416.828 285.121C416.805 285.182 416.769 285.238 416.722 285.284C416.597 285.411 416.448 285.513 416.283 285.581C416.063 285.669 415.836 285.735 415.603 285.778C415.321 285.827 415.035 285.851 414.748 285.851H403.033C402.743 285.851 402.453 285.826 402.167 285.778C401.924 285.733 401.685 285.667 401.453 285.581C401.271 285.513 401.103 285.412 400.958 285.284C400.849 285.195 400.777 285.069 400.756 284.929L400.351 280.106C400.348 280.04 400.359 279.974 400.385 279.912C400.41 279.851 400.448 279.796 400.497 279.752C400.625 279.628 400.776 279.531 400.941 279.465C401.159 279.377 401.385 279.313 401.616 279.274C401.894 279.225 402.177 279.201 402.459 279.201L414.063 279.173Z" fill="#FFCE6C"/>
<path d="M393.763 279.173C394.049 279.173 394.335 279.197 394.617 279.246C394.859 279.286 395.096 279.35 395.326 279.437C395.503 279.505 395.669 279.602 395.815 279.724C395.922 279.813 395.992 279.939 396.011 280.078L396.36 284.929C396.364 284.996 396.352 285.062 396.327 285.123C396.302 285.184 396.263 285.239 396.214 285.284C396.086 285.412 395.933 285.514 395.764 285.581C395.542 285.669 395.313 285.735 395.078 285.778C394.796 285.827 394.51 285.851 394.224 285.851H382.508C382.22 285.851 381.932 285.827 381.648 285.778C381.405 285.734 381.166 285.668 380.934 285.581C380.756 285.512 380.592 285.411 380.45 285.284C380.397 285.24 380.352 285.186 380.319 285.126C380.287 285.065 380.266 284.998 380.259 284.929L380.04 280.078C380.041 280.012 380.054 279.946 380.08 279.885C380.107 279.825 380.144 279.77 380.192 279.724C380.325 279.602 380.479 279.504 380.647 279.437C380.869 279.35 381.098 279.286 381.333 279.246C381.612 279.197 381.894 279.173 382.176 279.173H393.763Z" fill="#FFCE6C"/>
<path d="M373.462 279.173C373.749 279.173 374.035 279.197 374.317 279.246C374.557 279.286 374.792 279.35 375.02 279.437C375.193 279.506 375.355 279.603 375.498 279.724C375.601 279.815 375.667 279.941 375.683 280.078L375.869 284.929C375.867 284.996 375.852 285.063 375.824 285.124C375.796 285.185 375.756 285.239 375.706 285.284C375.573 285.413 375.417 285.514 375.245 285.581C375.021 285.668 374.789 285.734 374.553 285.778C374.269 285.827 373.981 285.851 373.693 285.851H361.983C361.695 285.851 361.407 285.827 361.123 285.778C360.883 285.735 360.648 285.669 360.42 285.581C360.243 285.514 360.081 285.412 359.942 285.284C359.89 285.24 359.847 285.186 359.816 285.125C359.785 285.064 359.767 284.997 359.762 284.929L359.706 280.078C359.714 279.942 359.775 279.815 359.875 279.724C360.011 279.6 360.17 279.503 360.341 279.437C360.564 279.349 360.796 279.285 361.033 279.246C361.313 279.197 361.597 279.173 361.882 279.173H373.462Z" fill="#FFCE6C"/>
<path d="M353.163 279.173C353.449 279.173 353.735 279.197 354.017 279.246C354.254 279.286 354.485 279.35 354.709 279.437C354.881 279.505 355.041 279.602 355.181 279.724C355.281 279.815 355.341 279.942 355.349 280.078V284.929C355.346 284.997 355.329 285.062 355.3 285.123C355.271 285.184 355.231 285.238 355.181 285.284C355.043 285.411 354.883 285.512 354.709 285.581C354.481 285.668 354.246 285.734 354.006 285.778C353.722 285.827 353.434 285.851 353.146 285.851H341.452C341.166 285.851 340.88 285.827 340.598 285.778C340.36 285.735 340.127 285.669 339.901 285.581C339.727 285.514 339.569 285.412 339.434 285.284C339.383 285.239 339.342 285.185 339.313 285.124C339.284 285.063 339.268 284.997 339.266 284.929L339.378 280.078C339.383 280.01 339.402 279.943 339.433 279.883C339.464 279.822 339.506 279.768 339.558 279.724C339.698 279.602 339.858 279.505 340.03 279.437C340.257 279.35 340.493 279.286 340.733 279.246C341.013 279.197 341.297 279.173 341.582 279.173H353.163Z" fill="#FFCE6C"/>
<path d="M332.89 279.173C333.174 279.173 333.458 279.198 333.739 279.246C333.973 279.286 334.203 279.35 334.424 279.437C334.595 279.503 334.751 279.6 334.885 279.724C334.935 279.769 334.974 279.823 335.001 279.884C335.028 279.945 335.042 280.011 335.043 280.078L334.897 284.929C334.892 284.997 334.874 285.064 334.843 285.125C334.812 285.186 334.769 285.24 334.717 285.284C334.575 285.411 334.411 285.512 334.233 285.581C334.004 285.668 333.766 285.734 333.525 285.778C333.241 285.827 332.953 285.851 332.665 285.851H320.927C320.64 285.851 320.354 285.827 320.072 285.778C319.836 285.735 319.604 285.669 319.381 285.581C319.21 285.514 319.055 285.412 318.925 285.284C318.876 285.239 318.837 285.184 318.811 285.123C318.785 285.062 318.772 284.996 318.774 284.929L319.049 280.078C319.067 279.94 319.135 279.814 319.24 279.724C319.384 279.602 319.548 279.505 319.724 279.437C319.951 279.35 320.186 279.286 320.426 279.246C320.709 279.198 320.994 279.173 321.281 279.173H332.89Z" fill="#FFCE6C"/>
<path d="M312.568 279.173C312.85 279.172 313.132 279.197 313.411 279.246C313.645 279.286 313.875 279.35 314.097 279.437C314.263 279.504 314.415 279.602 314.546 279.724C314.593 279.77 314.63 279.825 314.655 279.886C314.68 279.947 314.693 280.012 314.693 280.078L314.383 284.929C314.364 285.068 314.294 285.194 314.187 285.284C314.041 285.412 313.874 285.513 313.692 285.581C313.46 285.669 313.221 285.735 312.978 285.778C312.694 285.827 312.406 285.851 312.118 285.851H300.402C300.116 285.851 299.83 285.827 299.548 285.778C299.313 285.734 299.084 285.668 298.862 285.581C298.695 285.514 298.543 285.412 298.418 285.284C298.37 285.238 298.333 285.183 298.308 285.122C298.284 285.061 298.273 284.995 298.277 284.929L298.721 280.078C298.742 279.939 298.814 279.812 298.924 279.724C299.071 279.601 299.238 279.504 299.418 279.437C299.647 279.35 299.885 279.286 300.127 279.246C300.409 279.198 300.695 279.173 300.981 279.173H312.568Z" fill="#FFCE6C"/>
<path d="M454.657 279.173C454.948 279.173 455.237 279.198 455.523 279.246C455.771 279.286 456.013 279.35 456.248 279.437C456.435 279.505 456.609 279.602 456.766 279.724C456.882 279.812 456.965 279.936 457.002 280.078L457.851 284.929C457.861 284.993 457.856 285.058 457.837 285.12C457.817 285.181 457.783 285.237 457.738 285.284C457.623 285.414 457.478 285.516 457.317 285.581C457.103 285.669 456.88 285.735 456.653 285.778C456.373 285.827 456.089 285.851 455.804 285.851H444.089C443.797 285.85 443.505 285.826 443.217 285.778C442.969 285.733 442.724 285.667 442.486 285.581C442.299 285.51 442.125 285.41 441.969 285.284C441.856 285.194 441.777 285.069 441.744 284.929L441.025 280.106C441.018 280.041 441.026 279.976 441.047 279.915C441.069 279.854 441.103 279.798 441.148 279.752C441.267 279.627 441.411 279.529 441.57 279.465C441.785 279.376 442.009 279.312 442.239 279.274C442.516 279.225 442.796 279.201 443.077 279.201L454.657 279.173Z" fill="#FFCE6C"/>
<path d="M292.268 279.173C292.55 279.173 292.832 279.197 293.111 279.246C293.342 279.285 293.568 279.349 293.785 279.437C293.95 279.501 294.099 279.599 294.224 279.724C294.271 279.769 294.308 279.825 294.332 279.886C294.356 279.947 294.367 280.012 294.364 280.078L293.887 284.929C293.864 285.069 293.79 285.196 293.679 285.284C293.53 285.411 293.361 285.512 293.178 285.581C292.943 285.668 292.7 285.734 292.453 285.778C292.167 285.827 291.877 285.851 291.587 285.851H279.877C279.591 285.851 279.305 285.827 279.023 285.778C278.792 285.735 278.566 285.669 278.348 285.581C278.183 285.514 278.033 285.412 277.91 285.284C277.865 285.237 277.83 285.181 277.808 285.12C277.785 285.059 277.776 284.994 277.78 284.929L278.387 280.078C278.417 279.938 278.495 279.812 278.607 279.724C278.757 279.602 278.926 279.505 279.107 279.437C279.34 279.351 279.581 279.287 279.827 279.246C280.111 279.197 280.399 279.173 280.687 279.173H292.268Z" fill="#FFCE6C"/>
<path d="M271.973 279.173C272.254 279.173 272.534 279.197 272.811 279.246C273.04 279.285 273.264 279.35 273.48 279.437C273.64 279.503 273.785 279.6 273.907 279.724C273.952 279.77 273.987 279.826 274.008 279.887C274.03 279.948 274.037 280.013 274.031 280.078L273.39 284.929C273.362 285.07 273.284 285.196 273.171 285.284C273.017 285.41 272.845 285.511 272.659 285.581C272.421 285.667 272.177 285.733 271.928 285.778C271.642 285.826 271.353 285.851 271.062 285.851H259.347C259.062 285.851 258.778 285.827 258.498 285.778C258.269 285.735 258.045 285.669 257.829 285.581C257.667 285.514 257.521 285.412 257.402 285.284C257.358 285.237 257.325 285.18 257.305 285.119C257.286 285.058 257.28 284.993 257.289 284.929L258.059 280.078C258.094 279.937 258.175 279.812 258.29 279.724C258.444 279.602 258.617 279.505 258.801 279.437C259.036 279.35 259.279 279.286 259.527 279.246C259.811 279.198 260.099 279.173 260.387 279.173H271.973Z" fill="#FFCE6C"/>
<path d="M251.673 279.173C251.954 279.173 252.234 279.197 252.511 279.246C252.737 279.284 252.957 279.348 253.168 279.437C253.327 279.503 253.471 279.6 253.59 279.724C253.634 279.771 253.666 279.827 253.686 279.888C253.705 279.949 253.711 280.014 253.702 280.078L252.893 284.929C252.862 285.072 252.78 285.198 252.662 285.284C252.506 285.411 252.329 285.512 252.14 285.581C251.902 285.667 251.657 285.733 251.409 285.778C251.121 285.826 250.829 285.85 250.537 285.851H238.822C238.537 285.851 238.253 285.827 237.973 285.778C237.747 285.736 237.527 285.67 237.315 285.581C237.155 285.515 237.013 285.413 236.899 285.284C236.856 285.236 236.824 285.18 236.805 285.119C236.787 285.057 236.782 284.993 236.792 284.929L237.731 280.078C237.768 279.935 237.853 279.81 237.973 279.724C238.131 279.602 238.308 279.505 238.496 279.437C238.733 279.351 238.977 279.287 239.226 279.246C239.511 279.197 239.798 279.173 240.087 279.173H251.673Z" fill="#FFCE6C"/>
<path d="M231.372 279.173C231.651 279.172 231.93 279.197 232.204 279.246C232.43 279.284 232.651 279.348 232.862 279.437C233.017 279.502 233.157 279.6 233.272 279.724C233.315 279.771 233.346 279.828 233.363 279.889C233.381 279.95 233.384 280.015 233.374 280.078L232.401 284.929C232.361 285.072 232.274 285.197 232.154 285.284C231.993 285.411 231.812 285.512 231.62 285.581C231.38 285.667 231.134 285.733 230.883 285.778C230.593 285.826 230.3 285.85 230.006 285.851H208.835C208.552 285.852 208.27 285.827 207.991 285.778C207.768 285.735 207.549 285.669 207.339 285.581C207.184 285.516 207.047 285.414 206.94 285.284C206.898 285.236 206.869 285.178 206.854 285.117C206.84 285.055 206.84 284.991 206.856 284.929L208.031 280.106C208.079 279.964 208.169 279.841 208.289 279.752C208.461 279.628 208.651 279.532 208.851 279.465C209.092 279.378 209.341 279.314 209.593 279.274C209.88 279.226 210.169 279.201 210.459 279.201L231.372 279.173Z" fill="#FFCE6C"/>
<path d="M474.957 279.173C475.247 279.173 475.537 279.198 475.823 279.246C476.074 279.287 476.32 279.351 476.559 279.437C476.747 279.505 476.924 279.602 477.082 279.724C477.201 279.811 477.288 279.936 477.33 280.078L478.342 284.929C478.355 284.992 478.354 285.056 478.337 285.118C478.32 285.18 478.289 285.236 478.246 285.284C478.134 285.413 477.993 285.515 477.836 285.581C477.622 285.67 477.4 285.736 477.172 285.778C476.894 285.827 476.612 285.851 476.329 285.851H464.613C464.321 285.85 464.03 285.826 463.742 285.778C463.491 285.733 463.245 285.667 463.005 285.581C462.815 285.51 462.636 285.41 462.477 285.284C462.36 285.196 462.276 285.071 462.241 284.929L461.358 280.106C461.349 280.043 461.353 279.978 461.372 279.917C461.39 279.856 461.422 279.799 461.465 279.752C461.581 279.627 461.723 279.529 461.881 279.465C462.092 279.376 462.313 279.312 462.539 279.274C462.815 279.225 463.096 279.201 463.376 279.201L474.957 279.173Z" fill="#FFCE6C"/>
<path d="M297.726 287.695C298.012 287.695 298.298 287.72 298.58 287.768C298.816 287.811 299.046 287.879 299.266 287.971C299.434 288.036 299.587 288.136 299.716 288.263C299.764 288.311 299.801 288.368 299.825 288.431C299.85 288.494 299.86 288.561 299.856 288.628L299.418 293.615C299.4 293.761 299.325 293.894 299.21 293.986C299.059 294.113 298.888 294.216 298.704 294.289C298.468 294.381 298.223 294.449 297.973 294.492C297.683 294.54 297.39 294.565 297.096 294.565H285.212C284.922 294.565 284.632 294.54 284.346 294.492C284.111 294.449 283.881 294.382 283.66 294.289C283.494 294.218 283.343 294.115 283.216 293.986C283.167 293.938 283.13 293.88 283.107 293.816C283.084 293.751 283.075 293.683 283.081 293.615L283.643 288.628C283.664 288.483 283.741 288.352 283.857 288.263C284.007 288.137 284.179 288.038 284.363 287.971C284.6 287.88 284.844 287.813 285.094 287.768C285.382 287.72 285.673 287.696 285.965 287.695H297.726Z" fill="#FFCE6C"/>
<path d="M318.314 287.695C318.602 287.695 318.89 287.72 319.174 287.768C319.411 287.812 319.642 287.879 319.865 287.971C320.037 288.036 320.193 288.136 320.326 288.263C320.423 288.36 320.478 288.491 320.478 288.628L320.214 293.615C320.198 293.759 320.128 293.892 320.017 293.986C319.87 294.114 319.703 294.216 319.522 294.289C319.288 294.381 319.045 294.448 318.797 294.492C318.507 294.54 318.214 294.565 317.92 294.565H306.036C305.746 294.565 305.456 294.54 305.17 294.492C304.931 294.449 304.697 294.381 304.473 294.289C304.304 294.217 304.15 294.114 304.017 293.986C303.969 293.937 303.932 293.879 303.907 293.815C303.882 293.751 303.87 293.683 303.871 293.615L304.276 288.628C304.294 288.485 304.367 288.354 304.478 288.263C304.627 288.137 304.796 288.038 304.979 287.971C305.211 287.879 305.452 287.811 305.698 287.768C305.984 287.72 306.274 287.696 306.564 287.695H318.314Z" fill="#FFCE6C"/>
<path d="M338.905 287.695C339.193 287.695 339.481 287.72 339.765 287.768C340.004 287.811 340.238 287.879 340.462 287.971C340.637 288.037 340.797 288.136 340.934 288.263C340.985 288.31 341.026 288.366 341.054 288.429C341.082 288.492 341.097 288.56 341.097 288.628L341.002 293.615C340.998 293.686 340.98 293.756 340.948 293.82C340.916 293.884 340.871 293.94 340.816 293.986C340.674 294.115 340.511 294.218 340.333 294.289C340.102 294.381 339.863 294.449 339.619 294.492C339.329 294.54 339.036 294.565 338.742 294.565H326.858C326.567 294.565 326.278 294.54 325.992 294.492C325.751 294.449 325.516 294.381 325.289 294.289C325.116 294.218 324.958 294.115 324.822 293.986C324.772 293.938 324.732 293.881 324.705 293.817C324.678 293.753 324.664 293.684 324.665 293.615L324.896 288.628C324.911 288.487 324.979 288.356 325.087 288.263C325.233 288.139 325.401 288.042 325.581 287.976C325.812 287.884 326.051 287.817 326.295 287.774C326.58 287.726 326.867 287.701 327.156 287.701L338.905 287.695Z" fill="#FFCE6C"/>
<path d="M359.493 287.695C359.783 287.696 360.072 287.72 360.358 287.768C360.599 287.812 360.834 287.879 361.061 287.971C361.237 288.037 361.4 288.136 361.539 288.263C361.593 288.308 361.636 288.364 361.667 288.427C361.698 288.49 361.716 288.558 361.719 288.628L361.792 293.615C361.792 293.685 361.777 293.755 361.748 293.819C361.718 293.883 361.676 293.94 361.623 293.986C361.485 294.114 361.325 294.216 361.151 294.289C360.922 294.381 360.685 294.448 360.443 294.492C360.155 294.54 359.863 294.565 359.571 294.565H347.687C347.395 294.565 347.103 294.54 346.816 294.492C346.573 294.45 346.335 294.382 346.107 294.289C345.931 294.218 345.769 294.115 345.629 293.986C345.577 293.939 345.534 293.882 345.504 293.818C345.474 293.754 345.458 293.685 345.455 293.615L345.517 288.628C345.521 288.559 345.539 288.49 345.57 288.428C345.601 288.365 345.644 288.309 345.697 288.263C345.836 288.136 345.998 288.037 346.175 287.971C346.403 287.879 346.641 287.811 346.883 287.768C347.167 287.72 347.455 287.695 347.743 287.695H359.493Z" fill="#FFCE6C"/>
<path d="M380.113 287.695C380.403 287.696 380.692 287.72 380.978 287.768C381.221 287.812 381.458 287.88 381.687 287.971C381.867 288.036 382.033 288.135 382.176 288.263C382.286 288.355 382.356 288.486 382.373 288.628L382.614 293.615C382.615 293.684 382.602 293.753 382.575 293.817C382.547 293.881 382.507 293.938 382.457 293.986C382.321 294.115 382.163 294.218 381.99 294.289C381.766 294.381 381.532 294.449 381.293 294.492C381.005 294.54 380.714 294.565 380.422 294.565H368.509C368.217 294.565 367.926 294.54 367.638 294.492C367.392 294.448 367.151 294.381 366.918 294.289C366.741 294.217 366.578 294.114 366.435 293.986C366.328 293.89 366.262 293.758 366.249 293.615L366.143 288.628C366.143 288.56 366.158 288.492 366.186 288.429C366.214 288.366 366.255 288.31 366.306 288.263C366.441 288.137 366.6 288.038 366.772 287.971C366.999 287.879 367.234 287.812 367.475 287.768C367.757 287.72 368.043 287.695 368.329 287.695H380.113Z" fill="#FFCE6C"/>
<path d="M277.133 287.695C277.42 287.696 277.705 287.72 277.988 287.768C278.221 287.811 278.449 287.879 278.668 287.971C278.832 288.038 278.981 288.137 279.106 288.263C279.153 288.311 279.189 288.369 279.211 288.432C279.233 288.495 279.242 288.562 279.236 288.629L278.629 293.598C278.602 293.746 278.522 293.878 278.404 293.969C278.249 294.098 278.074 294.201 277.887 294.273C277.648 294.364 277.402 294.432 277.15 294.475C276.86 294.524 276.567 294.548 276.273 294.548H264.389C264.1 294.549 263.813 294.524 263.529 294.475C263.293 294.434 263.063 294.366 262.843 294.273C262.68 294.202 262.532 294.098 262.41 293.969C262.363 293.92 262.328 293.862 262.308 293.797C262.288 293.733 262.282 293.665 262.292 293.598L263.034 288.612C263.061 288.466 263.141 288.336 263.259 288.246C263.414 288.121 263.588 288.022 263.776 287.954C264.014 287.863 264.261 287.795 264.512 287.752C264.8 287.704 265.092 287.679 265.384 287.679L277.133 287.695Z" fill="#FFCE6C"/>
<path d="M400.678 287.695C400.968 287.696 401.257 287.72 401.543 287.768C401.789 287.812 402.03 287.88 402.263 287.971C402.445 288.038 402.615 288.137 402.763 288.263C402.875 288.354 402.948 288.485 402.966 288.628L403.382 293.615C403.385 293.684 403.373 293.752 403.348 293.816C403.323 293.88 403.285 293.938 403.235 293.986C403.104 294.115 402.95 294.218 402.78 294.289C402.556 294.381 402.322 294.449 402.083 294.492C401.799 294.54 401.511 294.565 401.223 294.565H389.338C389.045 294.565 388.751 294.54 388.461 294.492C388.214 294.449 387.971 294.381 387.736 294.289C387.555 294.218 387.388 294.115 387.242 293.986C387.131 293.892 387.06 293.759 387.045 293.615L386.764 288.628C386.763 288.56 386.775 288.493 386.801 288.43C386.828 288.367 386.866 288.31 386.916 288.263C387.048 288.136 387.205 288.036 387.377 287.971C387.599 287.878 387.831 287.81 388.068 287.768C388.35 287.72 388.636 287.695 388.922 287.695H400.678Z" fill="#FFCE6C"/>
<path d="M421.264 287.695C421.556 287.696 421.847 287.72 422.135 287.768C422.375 287.815 422.611 287.885 422.838 287.976C423.023 288.045 423.196 288.144 423.349 288.269C423.465 288.358 423.542 288.489 423.563 288.634L424.125 293.621C424.131 293.688 424.123 293.756 424.101 293.82C424.079 293.884 424.043 293.943 423.996 293.992C423.868 294.122 423.715 294.225 423.546 294.295C423.326 294.388 423.096 294.456 422.86 294.497C422.576 294.546 422.288 294.571 422 294.571H410.161C409.865 294.57 409.57 294.546 409.278 294.497C409.029 294.453 408.784 294.385 408.547 294.295C408.363 294.222 408.193 294.119 408.041 293.992C407.926 293.9 407.851 293.767 407.833 293.621L407.384 288.634C407.38 288.567 407.39 288.499 407.415 288.436C407.439 288.373 407.476 288.316 407.524 288.269C407.651 288.14 407.805 288.041 407.974 287.976C408.194 287.883 408.424 287.816 408.66 287.774C408.942 287.725 409.228 287.701 409.514 287.701L421.264 287.695Z" fill="#FFCE6C"/>
<path d="M441.857 287.695C442.149 287.696 442.44 287.72 442.728 287.768C442.978 287.813 443.222 287.88 443.459 287.971C443.648 288.039 443.825 288.137 443.982 288.263C444.099 288.353 444.179 288.483 444.207 288.628L444.966 293.615C444.973 293.682 444.966 293.75 444.944 293.814C444.923 293.878 444.888 293.937 444.842 293.986C444.72 294.116 444.573 294.22 444.409 294.289C444.19 294.382 443.962 294.449 443.729 294.492C443.445 294.541 443.157 294.565 442.869 294.565H430.984C430.689 294.564 430.393 294.54 430.102 294.492C429.85 294.448 429.604 294.38 429.365 294.289C429.178 294.216 429.004 294.113 428.848 293.986C428.789 293.942 428.739 293.886 428.701 293.822C428.664 293.759 428.639 293.688 428.629 293.615L428.005 288.628C427.999 288.562 428.007 288.495 428.03 288.432C428.052 288.369 428.088 288.311 428.134 288.263C428.257 288.135 428.407 288.035 428.573 287.971C428.791 287.879 429.019 287.811 429.253 287.768C429.533 287.72 429.817 287.695 430.102 287.695H441.857Z" fill="#FFCE6C"/>
<path d="M462.443 287.695C462.737 287.696 463.031 287.72 463.32 287.768C463.572 287.813 463.818 287.88 464.057 287.971C464.25 288.039 464.43 288.137 464.591 288.263C464.709 288.356 464.794 288.484 464.833 288.628L465.755 293.615C465.765 293.681 465.761 293.748 465.743 293.812C465.724 293.876 465.692 293.936 465.648 293.986C465.531 294.116 465.387 294.22 465.226 294.289C465.01 294.382 464.783 294.45 464.552 294.492C464.268 294.541 463.98 294.565 463.692 294.565H451.807C451.511 294.564 451.216 294.54 450.925 294.492C450.671 294.448 450.423 294.38 450.182 294.289C449.991 294.217 449.813 294.115 449.654 293.986C449.533 293.895 449.448 293.763 449.418 293.615L448.625 288.628C448.617 288.563 448.624 288.496 448.644 288.433C448.665 288.37 448.699 288.312 448.743 288.263C448.863 288.136 449.009 288.036 449.171 287.971C449.387 287.878 449.613 287.81 449.845 287.768C450.125 287.719 450.409 287.695 450.694 287.695H462.443Z" fill="#FFCE6C"/>
<path d="M256.547 287.695C256.832 287.695 257.116 287.72 257.396 287.768C257.626 287.81 257.851 287.878 258.065 287.971C258.229 288.035 258.377 288.135 258.498 288.263C258.543 288.312 258.577 288.37 258.597 288.433C258.617 288.496 258.624 288.563 258.616 288.629L257.835 293.598C257.806 293.746 257.724 293.878 257.604 293.969C257.444 294.096 257.266 294.198 257.076 294.273C256.835 294.363 256.587 294.431 256.334 294.475C256.042 294.523 255.747 294.547 255.451 294.548H243.567C243.278 294.549 242.991 294.524 242.706 294.475C242.475 294.434 242.248 294.366 242.032 294.273C241.87 294.202 241.725 294.098 241.605 293.969C241.561 293.919 241.528 293.86 241.51 293.796C241.492 293.732 241.487 293.664 241.498 293.598L242.409 288.612C242.448 288.467 242.533 288.339 242.65 288.246C242.81 288.122 242.988 288.023 243.179 287.954C243.419 287.864 243.668 287.796 243.921 287.752C244.211 287.703 244.504 287.679 244.798 287.679L256.547 287.695Z" fill="#FFCE6C"/>
<path d="M483.03 287.695C483.326 287.696 483.621 287.72 483.913 287.768C484.173 287.814 484.429 287.883 484.677 287.976C484.879 288.044 485.068 288.142 485.239 288.269C485.362 288.359 485.451 288.488 485.492 288.634L486.617 293.621C486.629 293.686 486.627 293.753 486.61 293.817C486.594 293.881 486.563 293.941 486.521 293.992C486.406 294.122 486.264 294.225 486.105 294.295C485.893 294.388 485.67 294.456 485.442 294.497C485.158 294.546 484.87 294.571 484.582 294.571H472.63C472.334 294.57 472.039 294.546 471.747 294.497C471.49 294.453 471.238 294.385 470.994 294.295C470.793 294.222 470.603 294.12 470.432 293.992C470.309 293.9 470.222 293.769 470.184 293.621L469.223 288.634C469.213 288.569 469.217 288.503 469.236 288.439C469.254 288.376 469.286 288.318 469.33 288.269C469.445 288.142 469.587 288.042 469.746 287.976C469.96 287.883 470.185 287.815 470.415 287.774C470.693 287.725 470.975 287.701 471.258 287.701L483.03 287.695Z" fill="#FFCE6C"/>
<path d="M495.257 279.173C495.547 279.173 495.837 279.198 496.123 279.246C496.376 279.287 496.624 279.351 496.865 279.437C497.065 279.505 497.255 279.601 497.427 279.724C497.548 279.811 497.637 279.935 497.68 280.078L498.805 284.659L498.872 284.929L500.98 293.598C500.996 293.662 500.997 293.729 500.982 293.794C500.968 293.858 500.938 293.918 500.896 293.969C500.786 294.1 500.647 294.204 500.491 294.273C500.278 294.365 500.056 294.433 499.828 294.475C499.546 294.524 499.26 294.548 498.973 294.548H493.486C493.189 294.548 492.892 294.523 492.598 294.475C492.339 294.431 492.085 294.363 491.839 294.273C491.638 294.2 491.448 294.098 491.277 293.969C491.151 293.878 491.058 293.747 491.013 293.598L489.461 286.756C489.419 286.612 489.33 286.485 489.208 286.397C489.037 286.27 488.848 286.172 488.646 286.104C488.404 286.013 488.154 285.948 487.898 285.908C487.609 285.857 487.315 285.832 487.021 285.834H485.132C484.839 285.834 484.545 285.809 484.255 285.761C484.003 285.717 483.755 285.651 483.513 285.565C483.311 285.497 483.121 285.396 482.951 285.267C482.829 285.182 482.742 285.056 482.704 284.912L481.686 280.106C481.673 280.043 481.675 279.979 481.692 279.917C481.708 279.856 481.739 279.799 481.782 279.752C481.894 279.627 482.032 279.529 482.187 279.465C482.396 279.376 482.615 279.312 482.839 279.274C483.113 279.225 483.392 279.201 483.671 279.201L495.257 279.173Z" fill="#FFCE6C"/>
<path d="M235.954 287.695C236.239 287.695 236.523 287.72 236.803 287.768C237.031 287.811 237.253 287.879 237.466 287.971C237.625 288.035 237.768 288.135 237.882 288.263C237.927 288.312 237.959 288.37 237.978 288.434C237.997 288.497 238 288.564 237.989 288.629L237.039 293.598C237.004 293.746 236.918 293.877 236.797 293.969C236.626 294.099 236.437 294.201 236.235 294.273C235.993 294.363 235.742 294.431 235.487 294.475C235.194 294.523 234.897 294.548 234.599 294.548H206.749C206.463 294.549 206.177 294.524 205.895 294.475C205.666 294.435 205.443 294.367 205.231 294.273C205.075 294.204 204.936 294.1 204.826 293.969C204.784 293.918 204.755 293.858 204.74 293.794C204.725 293.729 204.726 293.662 204.742 293.598L205.951 288.612C205.997 288.465 206.09 288.336 206.215 288.246C206.386 288.121 206.576 288.022 206.777 287.954C207.022 287.865 207.274 287.797 207.53 287.752C207.822 287.704 208.117 287.679 208.413 287.679L235.954 287.695Z" fill="#FFCE6C"/>
<path d="M265.429 296.465C265.719 296.464 266.009 296.491 266.295 296.544C266.53 296.584 266.761 296.652 266.98 296.746C267.146 296.816 267.296 296.919 267.419 297.05C267.465 297.101 267.499 297.16 267.521 297.225C267.542 297.29 267.549 297.359 267.543 297.427L266.829 302.559C266.797 302.71 266.714 302.846 266.593 302.942C266.437 303.076 266.258 303.181 266.064 303.251C265.823 303.347 265.572 303.419 265.316 303.464C265.019 303.512 264.718 303.537 264.417 303.537H252.375C252.083 303.538 251.792 303.513 251.504 303.464C251.267 303.422 251.037 303.35 250.818 303.251C250.65 303.183 250.5 303.077 250.379 302.942C250.334 302.89 250.3 302.829 250.281 302.763C250.261 302.697 250.257 302.627 250.267 302.559L251.121 297.427C251.151 297.276 251.235 297.142 251.358 297.05C251.518 296.921 251.698 296.818 251.892 296.746C252.133 296.652 252.384 296.584 252.639 296.544C252.931 296.491 253.226 296.465 253.522 296.465H265.429Z" fill="#FFCE6C"/>
<path d="M286.337 296.465C286.627 296.464 286.917 296.491 287.202 296.544C287.44 296.583 287.672 296.651 287.894 296.746C288.064 296.814 288.217 296.918 288.343 297.05C288.392 297.099 288.429 297.158 288.452 297.223C288.476 297.288 288.484 297.358 288.478 297.427L287.916 302.559C287.894 302.708 287.818 302.844 287.703 302.942C287.548 303.075 287.371 303.18 287.18 303.251C286.941 303.348 286.692 303.42 286.438 303.464C286.142 303.512 285.843 303.537 285.544 303.537H273.508C273.214 303.537 272.921 303.513 272.631 303.464C272.392 303.422 272.16 303.35 271.939 303.251C271.768 303.183 271.614 303.077 271.489 302.942C271.442 302.891 271.407 302.83 271.386 302.764C271.364 302.698 271.357 302.628 271.366 302.559L272.04 297.427C272.067 297.278 272.147 297.144 272.265 297.05C272.422 296.92 272.598 296.818 272.788 296.746C273.028 296.653 273.276 296.585 273.53 296.544C273.821 296.491 274.117 296.465 274.413 296.465H286.337Z" fill="#FFCE6C"/>
<path d="M307.227 296.465C307.518 296.464 307.808 296.491 308.093 296.544C308.334 296.584 308.57 296.652 308.796 296.746C308.967 296.814 309.122 296.918 309.251 297.05C309.302 297.098 309.341 297.157 309.367 297.222C309.394 297.287 309.406 297.357 309.403 297.427L309.037 302.559C309.02 302.707 308.948 302.844 308.835 302.942C308.686 303.076 308.512 303.181 308.323 303.251C308.087 303.349 307.84 303.421 307.587 303.464C307.293 303.513 306.996 303.537 306.699 303.537H294.663C294.369 303.538 294.075 303.513 293.786 303.464C293.544 303.422 293.308 303.35 293.083 303.251C292.91 303.183 292.754 303.077 292.628 302.942C292.58 302.891 292.542 302.831 292.518 302.765C292.494 302.699 292.483 302.629 292.487 302.559L292.987 297.427C293.012 297.28 293.088 297.147 293.201 297.05C293.352 296.919 293.525 296.816 293.713 296.746C293.948 296.654 294.193 296.586 294.443 296.544C294.735 296.491 295.03 296.465 295.326 296.465H307.227Z" fill="#FFCE6C"/>
<path d="M328.118 296.465C328.41 296.465 328.702 296.491 328.989 296.544C329.23 296.585 329.466 296.653 329.692 296.746C329.867 296.816 330.028 296.919 330.164 297.05C330.264 297.15 330.322 297.285 330.327 297.427L330.136 302.559C330.125 302.707 330.056 302.844 329.945 302.941C329.8 303.076 329.63 303.181 329.444 303.251C329.211 303.348 328.968 303.42 328.719 303.464C328.426 303.513 328.128 303.537 327.831 303.537H315.767C315.473 303.537 315.18 303.513 314.89 303.464C314.646 303.421 314.408 303.349 314.181 303.251C314.006 303.181 313.847 303.076 313.715 302.941C313.664 302.892 313.624 302.832 313.598 302.766C313.572 302.701 313.56 302.63 313.563 302.559L313.889 297.427C313.903 297.28 313.973 297.145 314.086 297.05C314.234 296.92 314.403 296.818 314.586 296.746C314.821 296.652 315.067 296.584 315.317 296.544C315.606 296.491 315.9 296.465 316.194 296.465H328.118Z" fill="#FFCE6C"/>
<path d="M244.556 296.465C244.844 296.464 245.132 296.49 245.416 296.544C245.65 296.582 245.879 296.65 246.096 296.746C246.26 296.812 246.407 296.917 246.523 297.05C246.569 297.101 246.602 297.161 246.622 297.226C246.641 297.291 246.646 297.359 246.636 297.427L245.753 302.559C245.717 302.711 245.63 302.846 245.506 302.942C245.339 303.078 245.148 303.183 244.944 303.251C244.699 303.348 244.444 303.42 244.185 303.464C243.887 303.512 243.586 303.537 243.285 303.537H231.243C230.953 303.538 230.664 303.513 230.378 303.464C230.143 303.423 229.914 303.351 229.697 303.251C229.532 303.185 229.385 303.078 229.27 302.942C229.226 302.889 229.194 302.828 229.176 302.762C229.159 302.696 229.156 302.626 229.169 302.559L230.198 297.427C230.237 297.276 230.326 297.143 230.451 297.05C230.62 296.918 230.81 296.816 231.013 296.746C231.257 296.654 231.509 296.586 231.766 296.544C232.061 296.491 232.36 296.465 232.66 296.465H244.556Z" fill="#FFCE6C"/>
<path d="M349.008 296.465C349.3 296.465 349.592 296.491 349.879 296.544C350.124 296.584 350.363 296.652 350.593 296.746C350.77 296.816 350.932 296.919 351.071 297.05C351.125 297.097 351.169 297.155 351.199 297.22C351.23 297.284 351.248 297.355 351.251 297.427V302.559C351.243 302.705 351.178 302.842 351.071 302.941C350.931 303.077 350.764 303.183 350.582 303.251C350.351 303.349 350.109 303.421 349.862 303.464C349.57 303.512 349.275 303.537 348.979 303.537H336.904C336.606 303.537 336.309 303.513 336.016 303.464C335.77 303.421 335.531 303.349 335.302 303.251C335.123 303.181 334.96 303.076 334.824 302.941C334.721 302.84 334.66 302.704 334.655 302.559L334.807 297.427C334.819 297.281 334.888 297.146 334.998 297.05C335.141 296.919 335.307 296.816 335.487 296.746C335.719 296.653 335.96 296.585 336.207 296.544C336.496 296.491 336.79 296.465 337.084 296.465H349.008Z" fill="#FFCE6C"/>
<path d="M369.893 296.465C370.187 296.465 370.48 296.491 370.77 296.544C371.016 296.584 371.258 296.652 371.489 296.746C371.671 296.816 371.839 296.919 371.984 297.05C372.092 297.147 372.159 297.282 372.169 297.427L372.332 302.559C372.332 302.631 372.317 302.702 372.288 302.768C372.259 302.833 372.216 302.893 372.164 302.942C372.03 303.077 371.869 303.183 371.692 303.251C371.461 303.349 371.219 303.421 370.972 303.464C370.68 303.513 370.385 303.537 370.089 303.537H358.031C357.735 303.537 357.44 303.513 357.148 303.464C356.899 303.421 356.656 303.349 356.423 303.251C356.241 303.181 356.075 303.076 355.934 302.942C355.826 302.842 355.762 302.705 355.754 302.559V297.427C355.762 297.283 355.824 297.149 355.928 297.05C356.067 296.919 356.229 296.816 356.406 296.746C356.636 296.652 356.875 296.584 357.12 296.544C357.409 296.491 357.703 296.464 357.997 296.465H369.893Z" fill="#FFCE6C"/>
<path d="M390.794 296.465C391.088 296.465 391.382 296.491 391.671 296.544C391.921 296.584 392.166 296.652 392.402 296.746C392.585 296.818 392.754 296.92 392.902 297.05C393.017 297.144 393.089 297.279 393.105 297.427L393.442 302.559C393.443 302.63 393.431 302.7 393.405 302.766C393.379 302.831 393.34 302.891 393.29 302.941C393.157 303.075 392.998 303.18 392.823 303.251C392.596 303.348 392.358 303.42 392.115 303.464C391.823 303.513 391.528 303.537 391.233 303.537H379.163C378.865 303.537 378.568 303.513 378.274 303.464C378.024 303.421 377.778 303.349 377.544 303.251C377.359 303.18 377.189 303.075 377.043 302.941C376.932 302.844 376.863 302.707 376.852 302.559L376.655 297.427C376.655 297.356 376.669 297.287 376.696 297.222C376.723 297.158 376.763 297.099 376.813 297.05C376.949 296.919 377.109 296.816 377.285 296.746C377.511 296.652 377.746 296.584 377.988 296.544C378.275 296.491 378.567 296.465 378.859 296.465H390.794Z" fill="#FFCE6C"/>
<path d="M411.673 296.465C411.969 296.465 412.264 296.491 412.556 296.544C412.806 296.585 413.051 296.653 413.286 296.746C413.474 296.816 413.647 296.919 413.798 297.05C413.857 297.095 413.906 297.152 413.943 297.217C413.979 297.282 414.003 297.353 414.012 297.427L414.529 302.559C414.532 302.629 414.522 302.699 414.498 302.765C414.474 302.831 414.436 302.891 414.388 302.942C414.26 303.076 414.105 303.182 413.933 303.251C413.708 303.349 413.472 303.421 413.23 303.464C412.94 303.513 412.647 303.537 412.353 303.537H400.295C399.995 303.537 399.696 303.513 399.401 303.464C399.148 303.42 398.901 303.348 398.664 303.251C398.478 303.18 398.306 303.075 398.158 302.942C398.044 302.844 397.97 302.708 397.95 302.559L397.574 297.427C397.571 297.357 397.583 297.287 397.609 297.222C397.635 297.157 397.675 297.098 397.725 297.05C397.855 296.917 398.013 296.813 398.186 296.746C398.41 296.652 398.644 296.584 398.884 296.544C399.169 296.491 399.459 296.464 399.749 296.465H411.673Z" fill="#FFCE6C"/>
<path d="M432.564 296.465C432.86 296.465 433.155 296.491 433.447 296.544C433.7 296.585 433.949 296.653 434.189 296.746C434.379 296.818 434.555 296.92 434.712 297.05C434.83 297.144 434.91 297.278 434.936 297.427L435.622 302.559C435.631 302.628 435.624 302.698 435.603 302.764C435.581 302.83 435.546 302.891 435.499 302.942C435.375 303.076 435.223 303.182 435.054 303.251C434.831 303.349 434.597 303.421 434.357 303.464C434.068 303.513 433.774 303.538 433.48 303.537H421.422C421.124 303.537 420.827 303.512 420.534 303.464C420.277 303.42 420.027 303.348 419.786 303.251C419.596 303.181 419.42 303.076 419.269 302.942C419.15 302.846 419.071 302.71 419.049 302.559L418.487 297.427C418.481 297.358 418.49 297.288 418.513 297.223C418.537 297.158 418.574 297.099 418.622 297.05C418.749 296.918 418.902 296.814 419.072 296.746C419.293 296.651 419.525 296.583 419.763 296.544C420.049 296.491 420.339 296.464 420.629 296.465H432.564Z" fill="#FFCE6C"/>
<path d="M453.454 296.465C453.75 296.465 454.045 296.491 454.337 296.544C454.592 296.584 454.843 296.652 455.084 296.746C455.278 296.818 455.458 296.921 455.618 297.05C455.741 297.143 455.826 297.277 455.86 297.427L456.72 302.559C456.731 302.627 456.726 302.697 456.706 302.763C456.687 302.829 456.653 302.89 456.608 302.942C456.49 303.078 456.342 303.184 456.175 303.251C455.956 303.349 455.725 303.421 455.489 303.464C455.201 303.513 454.91 303.537 454.618 303.537H442.553C442.254 303.537 441.955 303.512 441.66 303.464C441.402 303.42 441.149 303.348 440.906 303.251C440.713 303.181 440.534 303.076 440.378 302.942C440.257 302.846 440.173 302.71 440.142 302.559L439.417 297.427C439.41 297.359 439.417 297.29 439.438 297.225C439.46 297.16 439.494 297.101 439.54 297.05C439.663 296.919 439.813 296.816 439.979 296.746C440.198 296.652 440.429 296.584 440.665 296.544C440.95 296.491 441.24 296.464 441.53 296.465H453.454Z" fill="#FFCE6C"/>
<path d="M499.4 296.465C499.7 296.465 499.999 296.491 500.294 296.544C500.555 296.586 500.811 296.654 501.059 296.746C501.26 296.818 501.45 296.921 501.621 297.05C501.75 297.142 501.845 297.275 501.891 297.427L503.139 302.559C503.154 302.625 503.155 302.694 503.14 302.76C503.126 302.826 503.096 302.888 503.054 302.942C502.947 303.078 502.805 303.185 502.644 303.251C502.429 303.351 502.203 303.423 501.969 303.464C501.684 303.513 501.394 303.538 501.104 303.537H463.685C463.386 303.537 463.087 303.512 462.792 303.464C462.532 303.42 462.277 303.348 462.033 303.251C461.828 303.183 461.638 303.078 461.47 302.942C461.348 302.846 461.262 302.711 461.229 302.559L460.324 297.427C460.313 297.359 460.318 297.291 460.338 297.226C460.357 297.161 460.391 297.101 460.436 297.05C460.555 296.919 460.701 296.816 460.863 296.746C461.081 296.651 461.309 296.583 461.543 296.544C461.827 296.49 462.115 296.464 462.404 296.465H499.4Z" fill="#FFCE6C"/>
<path d="M223.665 296.465C223.954 296.464 224.242 296.49 224.525 296.544C224.756 296.582 224.981 296.65 225.194 296.746C225.357 296.813 225.501 296.917 225.616 297.05C225.66 297.101 225.692 297.162 225.71 297.227C225.727 297.292 225.73 297.36 225.717 297.427L224.649 302.559C224.608 302.712 224.517 302.847 224.39 302.942C224.222 303.076 224.032 303.18 223.828 303.251C223.581 303.347 223.325 303.419 223.064 303.464C222.766 303.512 222.466 303.537 222.164 303.537H204.596C204.306 303.538 204.017 303.513 203.731 303.464C203.499 303.422 203.275 303.35 203.062 303.251C202.9 303.185 202.759 303.078 202.651 302.942C202.609 302.889 202.578 302.827 202.563 302.761C202.547 302.694 202.547 302.626 202.561 302.559L203.815 297.427C203.859 297.275 203.952 297.143 204.079 297.05C204.25 296.92 204.439 296.818 204.641 296.746C204.889 296.654 205.145 296.586 205.406 296.544C205.701 296.491 206 296.465 206.3 296.465H223.665Z" fill="#FFCE6C"/>
<path d="M258.621 305.494C258.915 305.493 259.209 305.519 259.498 305.573C259.736 305.615 259.969 305.687 260.189 305.786C260.358 305.855 260.51 305.961 260.634 306.095C260.68 306.148 260.714 306.21 260.735 306.277C260.755 306.343 260.761 306.414 260.752 306.483L259.97 311.773C259.938 311.926 259.855 312.063 259.734 312.161C259.568 312.301 259.377 312.41 259.172 312.482C258.927 312.584 258.67 312.658 258.407 312.701C258.107 312.754 257.802 312.78 257.497 312.78H245.275C244.979 312.781 244.684 312.754 244.392 312.701C244.151 312.659 243.917 312.585 243.695 312.482C243.526 312.41 243.376 312.301 243.257 312.161C243.211 312.109 243.177 312.047 243.158 311.98C243.138 311.913 243.134 311.842 243.144 311.773L244.072 306.483C244.108 306.33 244.195 306.193 244.319 306.095C244.486 305.959 244.677 305.854 244.881 305.786C245.126 305.689 245.381 305.617 245.64 305.573C245.937 305.52 246.238 305.493 246.54 305.494H258.621Z" fill="#FFCE6C"/>
<path d="M279.821 305.494C280.115 305.493 280.408 305.519 280.698 305.573C280.938 305.615 281.172 305.687 281.395 305.786C281.568 305.854 281.723 305.96 281.85 306.095C281.899 306.147 281.936 306.208 281.959 306.275C281.983 306.342 281.991 306.413 281.985 306.483L281.384 311.773C281.358 311.926 281.278 312.064 281.159 312.161C280.992 312.301 280.802 312.41 280.597 312.482C280.355 312.584 280.102 312.657 279.843 312.701C279.543 312.754 279.238 312.78 278.933 312.78H266.722C266.426 312.781 266.131 312.755 265.839 312.701C265.596 312.66 265.36 312.586 265.137 312.482C264.965 312.41 264.811 312.301 264.687 312.161C264.638 312.11 264.602 312.049 264.581 311.982C264.559 311.914 264.553 311.843 264.563 311.773L265.305 306.483C265.335 306.33 265.419 306.192 265.542 306.095C265.697 305.961 265.876 305.856 266.07 305.786C266.313 305.69 266.566 305.618 266.823 305.573C267.12 305.52 267.421 305.493 267.723 305.494H279.821Z" fill="#FFCE6C"/>
<path d="M237.422 305.494C237.716 305.493 238.01 305.519 238.299 305.573C238.536 305.615 238.766 305.687 238.985 305.786C239.151 305.852 239.297 305.959 239.412 306.095C239.458 306.148 239.491 306.21 239.511 306.277C239.53 306.344 239.535 306.414 239.524 306.483L238.558 311.773C238.523 311.929 238.433 312.067 238.305 312.161C238.138 312.301 237.947 312.409 237.742 312.482C237.495 312.584 237.236 312.657 236.972 312.701C236.67 312.754 236.363 312.78 236.056 312.78H223.829C223.533 312.781 223.237 312.754 222.946 312.701C222.708 312.659 222.478 312.586 222.26 312.482C222.093 312.412 221.947 312.302 221.833 312.161C221.788 312.108 221.756 312.046 221.74 311.979C221.723 311.911 221.722 311.841 221.737 311.773L222.862 306.483C222.905 306.328 222.998 306.192 223.126 306.095C223.293 305.96 223.484 305.855 223.688 305.786C223.937 305.689 224.195 305.617 224.458 305.573C224.757 305.52 225.06 305.493 225.363 305.494H237.422Z" fill="#FFCE6C"/>
<path d="M428.201 305.494C428.503 305.493 428.804 305.52 429.1 305.573C429.358 305.617 429.611 305.689 429.854 305.786C430.045 305.857 430.222 305.962 430.377 306.095C430.498 306.192 430.58 306.33 430.607 306.483L431.27 311.773C431.277 311.844 431.268 311.915 431.245 311.982C431.222 312.049 431.184 312.11 431.136 312.161C431.01 312.301 430.854 312.41 430.68 312.482C430.457 312.585 430.22 312.659 429.977 312.701C429.684 312.754 429.387 312.781 429.089 312.78H416.851C416.547 312.78 416.244 312.754 415.946 312.701C415.685 312.657 415.43 312.584 415.187 312.482C414.995 312.407 414.818 312.298 414.664 312.161C414.544 312.065 414.465 311.926 414.445 311.773L413.922 306.483C413.918 306.412 413.929 306.341 413.954 306.274C413.979 306.207 414.018 306.146 414.068 306.095C414.195 305.96 414.35 305.854 414.523 305.786C414.748 305.688 414.984 305.616 415.226 305.573C415.517 305.519 415.813 305.493 416.109 305.494H428.201Z" fill="#FFCE6C"/>
<path d="M449.406 305.494C449.706 305.494 450.005 305.52 450.3 305.573C450.56 305.617 450.814 305.689 451.059 305.786C451.263 305.855 451.454 305.96 451.621 306.095C451.744 306.192 451.828 306.33 451.857 306.483L452.701 311.773C452.712 311.843 452.707 311.914 452.686 311.981C452.666 312.048 452.63 312.11 452.582 312.161C452.462 312.302 452.31 312.412 452.138 312.482C451.917 312.586 451.683 312.66 451.441 312.701C451.15 312.755 450.855 312.781 450.559 312.78H438.292C437.989 312.78 437.686 312.754 437.387 312.701C437.126 312.657 436.872 312.584 436.628 312.482C436.423 312.409 436.233 312.301 436.066 312.161C435.945 312.064 435.863 311.926 435.835 311.773L435.133 306.483C435.125 306.413 435.133 306.342 435.155 306.275C435.178 306.208 435.214 306.147 435.262 306.095C435.386 305.96 435.54 305.854 435.712 305.786C435.932 305.687 436.165 305.615 436.403 305.573C436.692 305.519 436.986 305.493 437.28 305.494H449.406Z" fill="#FFCE6C"/>
<path d="M470.623 305.494C470.925 305.493 471.226 305.52 471.523 305.573C471.786 305.617 472.044 305.689 472.293 305.786C472.497 305.856 472.687 305.96 472.855 306.095C472.982 306.192 473.073 306.329 473.114 306.483L474.137 311.773C474.147 311.842 474.143 311.912 474.125 311.979C474.106 312.045 474.074 312.108 474.03 312.161C473.913 312.301 473.764 312.41 473.597 312.482C473.367 312.592 473.123 312.67 472.872 312.712C472.581 312.766 472.285 312.792 471.989 312.791H459.745C459.434 312.793 459.124 312.766 458.817 312.712C458.553 312.668 458.295 312.595 458.047 312.493C457.842 312.421 457.652 312.312 457.485 312.172C457.358 312.078 457.27 311.94 457.238 311.785L456.355 306.495C456.344 306.425 456.349 306.354 456.37 306.287C456.39 306.22 456.426 306.158 456.473 306.107C456.591 305.97 456.739 305.864 456.906 305.797C457.127 305.698 457.359 305.626 457.598 305.584C457.885 305.53 458.177 305.504 458.469 305.505L470.623 305.494Z" fill="#FFCE6C"/>
<path d="M301.021 305.494C301.315 305.493 301.609 305.519 301.898 305.573C302.142 305.615 302.38 305.687 302.606 305.786C302.78 305.855 302.937 305.961 303.067 306.095C303.118 306.146 303.158 306.207 303.184 306.273C303.21 306.34 303.222 306.412 303.219 306.483L302.797 311.773C302.777 311.925 302.7 312.063 302.584 312.161C302.431 312.299 302.253 312.408 302.061 312.482C301.821 312.584 301.57 312.658 301.313 312.701C301.016 312.754 300.715 312.78 300.414 312.78H288.17C287.872 312.781 287.574 312.754 287.281 312.701C287.037 312.659 286.799 312.585 286.573 312.482C286.397 312.412 286.239 312.302 286.112 312.161C286.064 312.11 286.026 312.048 286.002 311.982C285.978 311.915 285.967 311.844 285.972 311.773L286.534 306.483C286.556 306.331 286.634 306.193 286.753 306.095C286.907 305.961 287.084 305.856 287.276 305.786C287.515 305.689 287.764 305.617 288.018 305.573C288.313 305.52 288.612 305.494 288.912 305.494H301.021Z" fill="#FFCE6C"/>
<path d="M501.543 305.494C501.846 305.494 502.149 305.52 502.448 305.573C502.713 305.618 502.973 305.69 503.224 305.786C503.427 305.856 503.617 305.961 503.786 306.095C503.917 306.192 504.013 306.328 504.061 306.483L505.349 311.773C505.364 311.84 505.365 311.91 505.35 311.977C505.336 312.044 505.306 312.107 505.264 312.161C505.154 312.3 505.011 312.41 504.848 312.482C504.632 312.585 504.404 312.659 504.168 312.701C503.877 312.755 503.581 312.781 503.285 312.78H481.192C480.885 312.78 480.578 312.754 480.276 312.701C480.01 312.657 479.749 312.584 479.5 312.482C479.296 312.407 479.106 312.299 478.938 312.161C478.808 312.067 478.716 311.93 478.679 311.773L477.617 306.483C477.603 306.415 477.605 306.345 477.622 306.278C477.64 306.21 477.672 306.148 477.718 306.095C477.832 305.961 477.976 305.855 478.139 305.786C478.358 305.687 478.589 305.615 478.825 305.573C479.113 305.519 479.404 305.492 479.697 305.494H501.543Z" fill="#FFCE6C"/>
<path d="M216.228 305.494C216.52 305.493 216.812 305.519 217.099 305.573C217.332 305.615 217.559 305.687 217.774 305.786C217.938 305.852 218.083 305.959 218.195 306.095C218.24 306.148 218.272 306.211 218.289 306.278C218.305 306.345 218.306 306.416 218.291 306.483L217.167 311.773C217.122 311.929 217.027 312.066 216.897 312.161C216.729 312.3 216.539 312.408 216.335 312.482C216.083 312.584 215.821 312.657 215.553 312.701C215.252 312.753 214.948 312.78 214.642 312.78H202.381C202.087 312.781 201.794 312.755 201.504 312.701C201.268 312.66 201.039 312.586 200.824 312.482C200.661 312.41 200.519 312.3 200.408 312.161C200.366 312.107 200.337 312.044 200.322 311.977C200.307 311.91 200.308 311.84 200.324 311.773L201.611 306.483C201.659 306.329 201.753 306.194 201.881 306.095C202.05 305.963 202.24 305.858 202.443 305.786C202.694 305.689 202.954 305.617 203.219 305.573C203.518 305.52 203.821 305.493 204.124 305.494H216.228Z" fill="#FFCE6C"/>
<path d="M408.149 305.494C408.449 305.494 408.748 305.52 409.043 305.573C409.297 305.617 409.546 305.689 409.785 305.786C409.975 305.856 410.151 305.961 410.302 306.095C410.42 306.193 410.497 306.332 410.516 306.483L411.011 311.773C411.015 311.845 411.004 311.916 410.979 311.983C410.954 312.05 410.915 312.111 410.864 312.161C410.734 312.301 410.575 312.41 410.398 312.482C410.171 312.586 409.93 312.66 409.684 312.701C409.391 312.754 409.093 312.781 408.796 312.78H309.617C309.315 312.785 309.014 312.762 308.717 312.712C308.469 312.67 308.227 312.597 307.998 312.493C307.819 312.421 307.658 312.312 307.525 312.172C307.474 312.122 307.434 312.062 307.408 311.995C307.382 311.928 307.37 311.856 307.374 311.785L307.756 306.495C307.775 306.344 307.849 306.206 307.964 306.107C308.113 305.972 308.287 305.867 308.475 305.797C308.714 305.699 308.963 305.628 309.218 305.584C309.511 305.531 309.808 305.504 310.106 305.505L408.149 305.494Z" fill="#FFCE6C"/>
<path d="M395.185 319.503C396.173 319.502 397.16 319.581 398.136 319.739C398.984 319.874 399.816 320.092 400.621 320.391C401.257 320.617 401.853 320.944 402.386 321.358C402.783 321.649 403.061 322.075 403.168 322.556L407.226 347.752C407.261 348.003 407.242 348.258 407.169 348.501C407.096 348.744 406.972 348.968 406.805 349.158C406.37 349.655 405.83 350.05 405.225 350.316C404.425 350.68 403.583 350.942 402.718 351.097C401.671 351.295 400.607 351.393 399.541 351.39H306.153C305.087 351.393 304.024 351.295 302.977 351.097C302.112 350.942 301.269 350.68 300.469 350.316C299.864 350.05 299.325 349.655 298.89 349.158C298.722 348.968 298.598 348.744 298.525 348.501C298.453 348.258 298.433 348.003 298.468 347.752L302.533 322.556C302.644 322.075 302.923 321.651 303.32 321.358C303.852 320.942 304.448 320.616 305.085 320.391C305.889 320.091 306.722 319.873 307.57 319.739C308.545 319.58 309.532 319.501 310.521 319.503H395.185Z" fill="#FFCE6C"/>
</g>
</svg>
