<?xml version="1.0" encoding="utf-8"?>
<!-- Generator: Adobe Illustrator 21.1.0, SVG Export Plug-In . SVG Version: 6.00 Build 0)  -->
<svg version="1.1" id="Layer_1" xmlns="http://www.w3.org/2000/svg" xmlns:xlink="http://www.w3.org/1999/xlink" x="0px" y="0px"
	 viewBox="0 0 280 280" style="enable-background:new 0 0 280 280;" xml:space="preserve">
<style type="text/css">
	.st0{fill:#148AF2;}
	.st1{fill:#0065C4;}
	.st2{fill:#127BD8;}
	.st3{fill:#72B9F7;}
	.st4{fill:#43A1F5;}
</style>
<g>
	<g>
		<g>
			<polygon class="st0" points="169.7,101.1 169.7,101.1 167.5,100.1 			"/>
		</g>
		<polygon class="st0" points="240.7,140.6 240.7,50 140.9,95.3 		"/>
		<polygon class="st0" points="140.9,185.9 240.7,140.6 140.9,95.3 		"/>
		<polygon class="st0" points="240.7,50 140.9,4.7 41.2,50 140.9,95.3 		"/>
		<polygon class="st0" points="41.2,50 41.2,231.2 140.9,276.5 140.9,95.3 		"/>
	</g>
	<g>
		<g>
			<polygon class="st1" points="169.7,101.1 169.7,101.1 167.5,100.1 			"/>
		</g>
		<polygon class="st2" points="240.7,140.6 240.7,50 140.9,95.3 		"/>
		<polygon class="st0" points="140.9,185.9 240.7,140.6 140.9,95.3 		"/>
		<polygon class="st3" points="240.7,50 140.9,4.7 41.2,50 140.9,95.3 		"/>
		<polygon class="st4" points="41.2,50 41.2,231.2 140.9,276.5 140.9,95.3 		"/>
	</g>
</g>
</svg>
